PathFileType	4	(X/Y/Z)	C:/Users/opensim2020/Desktop/walking_exp_matlab/subject06_walking12_static.trc	
DataRate	CameraRate	NumFrames	NumMarkers	Units	OrigDataRate	OrigDataStartFrame	OrigNumFrames	
100.00	100.00	5	48	mm	100.00	137	363	
Frame#	Time	LFHD			RFHD			LBHD			RBHD			C7			T10			CLAV			STRN			RBAK			LSHO			LUPA			LELB			LFRM			LWRA			LWRB			LFIN			RSHO			RUPA			RELB			RFRM			RWRA			RWRB			RFIN			LASI			RASI			LPSI			RPSI			LTHI			LKNE			LTIB			LANK			LHEE			LTOE			RTHI			RKNE			RTIB			RANK			RHEE			RTOE			*39			*40			*41			*42			*43			*44			*45			*46			*47			
		X1	Y1	Z1	X2	Y2	Z2	X3	Y3	Z3	X4	Y4	Z4	X5	Y5	Z5	X6	Y6	Z6	X7	Y7	Z7	X8	Y8	Z8	X9	Y9	Z9	X10	Y10	Z10	X11	Y11	Z11	X12	Y12	Z12	X13	Y13	Z13	X14	Y14	Z14	X15	Y15	Z15	X16	Y16	Z16	X17	Y17	Z17	X18	Y18	Z18	X19	Y19	Z19	X20	Y20	Z20	X21	Y21	Z21	X22	Y22	Z22	X23	Y23	Z23	X24	Y24	Z24	X25	Y25	Z25	X26	Y26	Z26	X27	Y27	Z27	X28	Y28	Z28	X29	Y29	Z29	X30	Y30	Z30	X31	Y31	Z31	X32	Y32	Z32	X33	Y33	Z33	X34	Y34	Z34	X35	Y35	Z35	X36	Y36	Z36	X37	Y37	Z37	X38	Y38	Z38	X39	Y39	Z39	X40	Y40	Z40	X41	Y41	Z41	X42	Y42	Z42	X43	Y43	Z43	X44	Y44	Z44	X45	Y45	Z45	X46	Y46	Z46	X47	Y47	Z47	X48	Y48	Z48	

137	1.360	395.37103	-661.19305	1678.05334	407.38046	-529.98303	1665.45203	527.26569	-673.69293	1620.03186	537.35815	-544.52002	1613.64282	528.56635	-614.60809	1460.19690	555.48962	-599.75006	1133.17261	415.76727	-606.15295	1388.10449	371.46552	-608.80280	1214.79932	601.54962	-531.95465	1289.98145	464.23312	-771.05817	1415.55237	445.05707	-847.81976	1215.80469	432.00699	-866.63226	1105.49353	376.19473	-899.27808	967.96826	289.25183	-865.41602	868.80438	347.41476	-903.06592	852.06720	286.68033	-909.78217	784.50403	471.41922	-450.11612	1419.93604	476.59610	-350.21545	1226.02588	440.48373	-320.14755	1113.26770	411.49188	-282.58081	1001.38037	333.97388	-281.55554	866.68494	392.22614	-248.52467	868.39417	347.50253	-228.08795	799.86481	379.15070	-700.26776	973.95245	382.95609	-480.93109	981.55402	535.24750	-675.88324	1005.24652	531.75592	-509.73187	1011.40997	481.34622	-779.22089	666.67865	500.56577	-769.14459	503.52597	544.97668	-794.29822	252.70985	543.27350	-771.43890	75.00992	582.90826	-729.42023	56.24265	395.38943	-770.53094	39.19123	478.50604	-412.29294	650.69202	493.28461	-427.95114	525.79980	562.13654	-406.80109	269.59103	574.98871	-436.25287	78.62757	612.90649	-479.42554	51.28055	418.49066	-431.74496	35.86083	501.73709	-610.98285	1713.59302																								 
138	1.370	395.39816	-661.15527	1678.08606	407.52695	-529.95605	1665.52820	527.24158	-673.78534	1619.98804	537.47119	-544.62439	1613.63782	528.54810	-614.53473	1460.18750	555.54047	-599.75269	1133.15662	415.78748	-606.13324	1388.10815	371.51547	-608.76782	1214.79309	601.51215	-531.89313	1289.94836	464.23013	-771.01263	1415.57202	445.06522	-847.76532	1215.82532	432.04974	-866.56000	1105.46362	376.34674	-899.28204	967.94904	289.41040	-865.39368	868.74048	347.55179	-903.01660	852.03192	286.86115	-909.77032	784.44922	471.44357	-450.09683	1419.95020	476.60934	-350.17252	1226.01489	440.46579	-320.14233	1113.24548	411.44681	-282.60361	1001.38855	333.87570	-281.55518	866.70471	392.15701	-248.54457	868.39740	347.36264	-227.87875	799.96808	379.21088	-700.23639	973.94043	382.99316	-480.96521	981.53577	535.26733	-675.81537	1005.25085	531.79187	-509.69241	1011.40845	481.36526	-779.18774	666.67358	500.59592	-769.14117	503.52277	544.97717	-794.29669	252.70221	543.27954	-771.43195	74.99673	582.97058	-729.40289	56.24964	395.28760	-770.43469	39.18026	478.47919	-412.29929	650.65198	493.25754	-427.88165	525.79761	562.10516	-406.72888	269.61728	574.99780	-436.24017	78.62119	612.91119	-479.42041	51.28054	418.50128	-431.78098	35.85052	501.81891	-611.05719	1713.56799																								 
139	1.380	395.39145	-661.08325	1678.09082	407.70813	-529.88129	1665.56787	527.17761	-673.89246	1619.94373	537.59906	-544.71930	1613.63940	528.62677	-614.63470	1460.22583	555.56073	-599.74109	1133.18872	415.80890	-606.14093	1388.13416	371.55859	-608.72260	1214.77832	601.56134	-531.93243	1289.95471	464.22507	-770.97705	1415.58313	445.07187	-847.76807	1215.82947	432.12851	-866.58630	1105.52124	376.42303	-899.18347	967.91180	289.55682	-865.38177	868.69421	347.71161	-903.07208	852.02338	287.02252	-909.70929	784.36511	471.48944	-450.05948	1419.95740	476.60953	-350.13959	1226.05090	440.43198	-320.12970	1113.24609	411.40588	-282.61792	1001.39990	333.82141	-281.60211	866.74725	392.06717	-248.55603	868.41388	347.34875	-228.17342	799.86304	379.23389	-700.19788	973.93781	382.98480	-480.93411	981.52002	535.32501	-675.81921	1005.27069	531.80011	-509.66162	1011.40051	481.40891	-779.19958	666.67969	500.59473	-769.12286	503.50177	545.01147	-794.30023	252.71100	543.29199	-771.44745	75.00390	582.88635	-729.41547	56.20272	395.31161	-770.44830	39.18431	478.49927	-412.21014	650.69611	493.26346	-427.86340	525.80396	562.11395	-406.74023	269.62039	575.02161	-436.21805	78.61413	612.90930	-479.42398	51.27069	418.51532	-431.80688	35.85419	501.79871	-611.07141	1713.58618																								 
140	1.390	395.35773	-660.99615	1678.09436	407.90881	-529.82123	1665.62146	527.09485	-674.02588	1619.91345	537.74536	-544.88043	1613.62610	528.64294	-614.60083	1460.22168	555.56006	-599.70355	1133.13879	415.80576	-606.05560	1388.16797	371.57339	-608.68188	1214.78503	601.51740	-531.87347	1289.88342	464.23792	-770.94513	1415.57654	445.10324	-847.73724	1215.83350	432.19174	-866.58044	1105.51318	376.53519	-899.19812	967.94330	289.68741	-865.37628	868.63922	347.85056	-903.04297	851.98792	287.19296	-909.69135	784.32623	471.53772	-450.01819	1419.98071	476.59286	-350.12067	1226.04968	440.42276	-320.12988	1113.28882	411.32358	-282.43427	1001.53876	333.72931	-281.62003	866.77295	392.00137	-248.57504	868.44269	347.26184	-228.16895	799.91083	379.27112	-700.18738	973.93140	383.00125	-480.90024	981.50671	535.37268	-675.76514	1005.24127	531.96332	-509.48947	1011.47992	481.42352	-779.19586	666.66547	500.60925	-769.11847	503.49802	544.98303	-794.25244	252.67346	543.29285	-771.45001	74.99059	582.92841	-729.41003	56.21595	395.31259	-770.43787	39.20466	478.50943	-412.22418	650.66473	493.29749	-427.87497	525.80505	562.11682	-406.73215	269.58786	575.01819	-436.21497	78.61379	612.90088	-479.41125	51.27751	418.53583	-431.72565	35.86840	501.85425	-611.17340	1713.58203																								 
141	1.400	395.28918	-660.91785	1678.09119	408.12122	-529.78320	1665.69275	527.00006	-674.19043	1619.89551	537.88623	-545.07190	1613.67310	528.66638	-614.57605	1460.21021	555.55646	-599.72607	1133.18616	415.82620	-606.05334	1388.18835	371.59222	-608.65771	1214.76514	601.51337	-531.85876	1289.88452	464.25732	-770.96057	1415.57202	445.12354	-847.69812	1215.82996	432.26541	-866.63385	1105.52332	376.64719	-899.19061	967.89941	289.81253	-865.32904	868.58618	348.02249	-903.03699	851.94989	287.34863	-909.64874	784.23785	471.56677	-449.97064	1420.01343	476.60864	-350.13678	1226.07300	440.33246	-319.87750	1113.48438	411.28223	-282.45990	1001.57190	333.78976	-281.83612	866.84113	391.92715	-248.58253	868.45447	347.21515	-228.24995	799.90265	379.33698	-700.18176	973.90619	383.26300	-481.00433	981.38715	535.39587	-675.73718	1005.24597	531.89899	-509.64182	1011.43036	481.45038	-779.18707	666.65015	500.63666	-769.10297	503.48828	544.99420	-794.27051	252.66621	543.26855	-771.46216	74.97679	582.97662	-729.41486	56.23208	395.28467	-770.48846	39.13846	478.53641	-412.19565	650.71521	493.29297	-427.84583	525.77576	562.12610	-406.72891	269.57599	575.01416	-436.24619	78.61408	612.89813	-479.42032	51.27626	418.48752	-431.85181	35.83513	501.89865	-611.30859	1713.58752																								 
